<?xml version="1.0" standalone="no"?>
<!DOCTYPE svg PUBLIC "-//W3C//DTD SVG 20010904//EN"
 "http://www.w3.org/TR/2001/REC-SVG-20010904/DTD/svg10.dtd">
<svg version="1.0" xmlns="http://www.w3.org/2000/svg"
 width="580.000000pt" height="83.000000pt" viewBox="0 0 580.000000 83.000000"
 preserveAspectRatio="xMidYMid meet">

<g transform="translate(0.000000,83.000000) scale(0.100000,-0.100000)"
fill="currentColor" stroke="none">
  <path d="M2410 738 c-55 -20 -93 -57 -127 -125 -29 -60 -33 -78 -36 -168 -6
-163 36 -294 111 -343 102 -68 348 -23 468 85 105 95 127 223 51 296 -32 31
-101 57 -146 56 -28 0 -26 -2 20 -18 112 -40 144 -73 144 -146 0 -143 -196
-277 -405 -278 -76 0 -117 21 -157 78 -42 61 -61 151 -56 269 5 116 30 179 92
234 72 63 139 49 230 -48 26 -28 50 -49 52 -47 3 2 -11 26 -29 53 -60 86 -143
127 -212 102z"/>
<path d="M2648 818 c-19 -25 -23 -68 -11 -115 l13 -48 5 75 c3 42 9 74 15 73
6 -1 16 -30 24 -65 8 -35 16 -65 18 -67 1 -2 18 8 37 23 19 14 37 26 40 26 3
0 7 -15 7 -32 1 -19 3 -25 6 -15 3 11 2 35 -2 54 l-6 36 -30 -37 c-17 -20 -34
-36 -39 -36 -4 0 -11 17 -14 38 -17 92 -38 122 -63 90z"/>
<path d="M2837 671 c-37 -27 -67 -59 -46 -49 5 2 38 18 73 36 48 23 68 29 78
20 10 -8 13 -6 13 6 0 28 -71 21 -118 -13z"/>
  <path d="M2887 598 l-41 -42 -55 37 c-61 41 -75 35 -23 -9 43 -37 122 -72 177
-79 l45 -6 -45 19 c-25 10 -53 22 -62 25 -15 5 -11 12 24 45 22 21 37 42 31
45 -5 3 -28 -13 -51 -35z"/>
<path d="M2690 475 c0 -13 3 -21 8 -18 4 2 7 10 7 18 0 8 -3 16 -7 18 -5 3 -8
-5 -8 -18z"/>
<path d="M2842 430 c-3 -11 -1 -20 4 -20 5 0 9 9 9 20 0 11 -2 20 -4 20 -2 0
-6 -9 -9 -20z"/>
<path d="M2749 391 c0 -11 4 -17 8 -15 4 3 8 12 8 20 0 8 -4 14 -8 14 -4 0 -8
-9 -8 -19z"/>
<path d="M2632 350 c3 -11 7 -20 9 -20 2 0 4 9 4 20 0 11 -4 20 -9 20 -5 0 -7
-9 -4 -20z"/>
<path d="M2800 314 c0 -27 10 -32 18 -10 3 8 0 19 -6 24 -9 8 -12 4 -12 -14z"/>
<path d="M2709 291 c0 -11 4 -17 8 -15 4 3 8 12 8 20 0 8 -4 14 -8 14 -4 0 -8
-9 -8 -19z"/>
<path d="M2590 244 c0 -27 10 -32 18 -10 3 8 0 19 -6 24 -9 8 -12 4 -12 -14z"/>
<path d="M2699 206 c0 -13 4 -22 9 -19 10 6 9 31 -2 37 -5 3 -8 -5 -7 -18z"/>
<path d="M2612 160 c-3 -11 -1 -20 4 -20 5 0 9 9 9 20 0 11 -2 20 -4 20 -2 0
-6 -9 -9 -20z"/>
<path d="M2523 145 c3 -19 8 -23 15 -16 8 8 7 16 -5 27 -14 14 -15 14 -10 -11z"/>
  
<path d="M273 663 c-12 -2 -36 -20 -53 -39 -24 -28 -30 -44 -30 -79 0 -55 23
-83 130 -158 85 -60 104 -92 79 -135 -22 -40 -62 -56 -104 -42 -36 12 -95 71
-95 95 0 7 -5 17 -11 20 -7 5 -8 -15 -3 -66 3 -41 8 -76 10 -78 2 -3 10 3 17
13 11 16 15 16 49 1 72 -29 155 -9 183 46 20 38 19 108 -3 142 -9 16 -55 54
-102 86 -99 67 -116 95 -83 139 27 36 78 41 116 12 15 -12 39 -43 53 -68 l25
-47 -5 55 c-3 30 -6 69 -6 85 -1 28 -1 29 -15 11 -14 -18 -17 -19 -66 -3 -28
10 -54 16 -58 16 -3 -1 -16 -4 -28 -6z"/>
<path d="M665 650 c3 -5 13 -10 20 -10 29 0 35 -40 35 -217 0 -186 -2 -198
-45 -221 -16 -9 2 -11 80 -12 l100 0 -35 18 -35 17 -3 180 c-1 99 0 190 3 203
3 12 19 28 38 36 30 14 27 14 -66 15 -63 1 -96 -3 -92 -9z"/>
<path d="M1060 616 c0 -24 -3 -51 -6 -60 -3 -9 -1 -16 5 -16 6 0 11 11 11 25
0 43 33 65 95 65 l55 0 0 -189 c0 -104 -3 -197 -6 -206 -4 -10 -21 -23 -38
-31 -29 -12 -23 -13 74 -14 l105 0 -35 18 -35 17 -3 203 -2 202 50 0 c55 0 90
-23 90 -59 0 -11 5 -23 12 -27 8 -5 9 2 5 26 -4 18 -7 45 -7 61 l0 29 -185 0
-185 0 0 -44z"/>
<path d="M1645 650 c3 -5 13 -10 20 -10 29 0 35 -40 35 -217 0 -186 -2 -198
-45 -221 -16 -9 2 -11 80 -12 l100 0 -35 18 -35 17 -3 88 c-3 80 -1 87 16 87
22 0 65 -44 136 -143 l50 -67 55 0 c55 1 56 1 29 16 -15 8 -55 51 -89 97 -34
45 -66 87 -71 94 -7 8 1 16 25 26 47 20 67 52 67 108 0 58 -34 104 -88 119
-49 13 -255 13 -247 0z m242 -55 c31 -36 31 -95 0 -131 -18 -21 -35 -28 -75
-32 l-52 -5 0 95 c0 52 3 98 8 102 4 4 27 6 52 3 32 -4 51 -13 67 -32z"/>
<path d="M3158 640 l32 -20 0 -192 c0 -106 -4 -198 -8 -205 -4 -7 -19 -17 -32
-22 -19 -8 16 -10 130 -8 129 2 159 5 181 20 55 37 67 125 23 176 -14 17 -32
31 -40 31 -20 0 -18 5 16 38 61 61 28 168 -58 192 -20 5 -91 10 -157 10 l-120
0 33 -20z m212 -28 c19 -9 41 -30 48 -45 29 -60 -32 -127 -115 -127 l-43 0 0
95 0 95 38 0 c20 0 53 -8 72 -18z m42 -241 c38 -42 37 -83 -1 -122 -26 -26
-36 -29 -90 -29 l-61 0 0 94 c0 107 0 107 79 95 33 -5 52 -15 73 -38z"/>
<path d="M3723 654 c4 -4 17 -12 29 -18 23 -11 23 -16 26 -196 1 -102 0 -195
-3 -207 -3 -12 -17 -26 -32 -31 -22 -8 -7 -10 72 -11 83 0 96 2 75 12 -37 17
-40 24 -40 120 l0 87 110 0 111 0 -3 -92 -3 -93 -35 -17 -35 -18 100 0 100 0
-33 20 -32 20 2 197 3 198 30 15 30 15 -47 3 c-27 2 -69 2 -95 0 -46 -3 -47
-4 -22 -15 34 -15 39 -30 39 -124 l0 -79 -110 0 -111 0 3 92 c3 85 5 93 26
104 43 21 35 24 -63 24 -54 0 -95 -3 -92 -6z"/>
<path d="M4375 650 c3 -5 13 -10 20 -10 29 0 35 -40 35 -224 l0 -186 -32 -20
-33 -20 181 0 181 0 15 55 15 56 -36 -39 c-34 -37 -40 -40 -112 -46 -111 -10
-109 -12 -109 105 l0 99 58 0 c67 0 106 -17 110 -48 2 -12 6 -22 10 -22 4 0 5
37 3 82 -2 46 -6 74 -9 63 -8 -39 -22 -45 -98 -45 l-74 0 0 90 0 90 74 0 c96
0 123 -10 135 -52 9 -31 9 -29 10 25 l1 57 -176 0 c-114 0 -173 -3 -169 -10z"/>
<path d="M4968 640 l32 -20 0 -200 0 -201 -32 -14 c-30 -13 -16 -14 146 -12
l180 2 6 25 c23 89 25 86 -17 42 -35 -36 -43 -40 -107 -45 -111 -10 -107 -19
-104 211 l3 197 35 17 35 17 -105 0 -105 1 33 -20z"/>
<path d="M5508 640 l32 -20 0 -192 c0 -106 -4 -198 -8 -205 -4 -7 -19 -16 -32
-22 -19 -7 -1 -10 75 -10 93 0 98 1 69 13 -18 8 -34 24 -37 37 -9 33 -7 350 2
373 4 10 20 24 37 31 26 12 20 13 -71 14 l-100 1 33 -20z"/>

</g>
</svg>
